<svg xmlns="http://www.w3.org/2000/svg" width="46" height="46" viewBox="0 0 46 46">
  <g id="Group_71" data-name="Group 71" transform="translate(-1091 394)">
    <path id="Path_17" data-name="Path 17" d="M23,0A23,23,0,1,1,0,23,23,23,0,0,1,23,0Z" transform="translate(1091 -394)" fill="#484b4e"/>
    <path id="Path_5" data-name="Path 5" d="M23.976,9.2a1.276,1.276,0,0,0-1.1-.877l-6.94-.63L13.2,1.272a1.278,1.278,0,0,0-2.351,0L8.1,7.693l-6.941.63a1.279,1.279,0,0,0-.726,2.236l5.246,4.6L4.134,21.971a1.278,1.278,0,0,0,1.9,1.381l5.984-3.578L18,23.352a1.279,1.279,0,0,0,1.9-1.381l-1.547-6.812,5.246-4.6A1.279,1.279,0,0,0,23.976,9.2Zm-11.842,10.5" transform="translate(1101.977 -382.693)" fill="#fff"/>
  </g>
</svg>
